<?xml version="1.0" encoding="iso-8859-1"?>
<!-- Generator: Adobe Illustrator 19.0.0, SVG Export Plug-In . SVG Version: 6.00 Build 0)  -->
<svg version="1.1" id="Layer_1" xmlns="http://www.w3.org/2000/svg" xmlns:xlink="http://www.w3.org/1999/xlink" x="0px" y="0px"
	 viewBox="0 0 390.206 390.206" style="enable-background:new 0 0 390.206 390.206;" xml:space="preserve">
<path style="fill:#56ACE0;" d="M322.974,368.259h-181.01l25.988-48.226h24.372c5.947,0,10.861-4.848,10.861-10.861
	c0-5.947-4.848-10.861-10.861-10.861h-12.477l11.895-21.657h43.895c5.947,0,10.861-4.848,10.861-10.861
	c0-5.947-4.848-10.861-10.861-10.861h-32.517l66.651-123.022L322.974,368.259z"/>
<g>
	<polygon style="fill:#FFC10D;" points="345.794,368.259 368.549,368.259 368.549,296.695 302.416,174.772 	"/>
	<polygon style="fill:#FFC10D;" points="21.657,296.695 21.657,368.259 114.36,368.259 75.895,195.911 	"/>
</g>
<polygon style="fill:#FFFFFF;" points="147.976,312.404 107.83,239.224 131.168,343.305 "/>
<path style="fill:#FFC10D;" d="M100.784,52.267c0,17.325,14.093,30.901,30.901,30.901c17.325,0,30.901-14.093,30.901-30.901
	c0-17.325-14.093-30.901-30.901-30.901S100.784,35.459,100.784,52.267z"/>
<g>
	<path style="fill:#194F82;" d="M132.267,105.406c29.285,0,52.558-23.855,52.558-52.558c0-29.285-23.855-52.558-52.558-52.558
		c-29.285,0-52.558,23.855-52.558,52.558C79.127,81.552,102.982,105.406,132.267,105.406z M163.103,52.267
		c0,17.325-14.093,30.901-30.901,30.901c-17.325,0-30.901-14.093-30.901-30.901c0-17.325,14.093-30.901,30.901-30.901
		S163.103,35.459,163.103,52.267z"/>
	<path style="fill:#194F82;" d="M389.107,288.549L284.509,96.162c-4.849-7.564-14.093-7.564-18.941,0l-105.18,193.487
		L89.923,160.097c-4.848-8.145-14.093-7.564-18.941,0L1.099,288.549C0,290.166,0,291.782,0,293.98v85.075
		c0,5.947,4.848,10.861,10.861,10.861h368.485c5.947,0,10.861-4.848,10.861-10.861V293.98
		C390.206,291.846,389.689,290.23,389.107,288.549z M368.549,368.259h-22.756l-43.378-193.487l66.133,121.923V368.259z
		 M141.964,368.259l25.988-48.226h24.372c5.947,0,10.861-4.848,10.861-10.861s-4.848-10.861-10.861-10.861h-12.477l11.895-21.657
		h43.895c5.947,0,10.861-4.848,10.861-10.861s-4.848-10.861-10.861-10.861h-32.517l66.651-123.022l53.139,236.283H141.964V368.259z
		 M21.657,368.259v-71.564L75.83,196.428l38.465,172.347H21.657V368.259z M147.976,312.404l-16.808,30.319l-23.273-104.081
		L147.976,312.404z"/>
</g>
<g>
</g>
<g>
</g>
<g>
</g>
<g>
</g>
<g>
</g>
<g>
</g>
<g>
</g>
<g>
</g>
<g>
</g>
<g>
</g>
<g>
</g>
<g>
</g>
<g>
</g>
<g>
</g>
<g>
</g>
</svg>
