<?xml version="1.0" encoding="iso-8859-1"?>
<!-- Generator: Adobe Illustrator 19.0.0, SVG Export Plug-In . SVG Version: 6.00 Build 0)  -->
<svg version="1.1" id="Layer_1" xmlns="http://www.w3.org/2000/svg" xmlns:xlink="http://www.w3.org/1999/xlink" x="0px" y="0px"
	 viewBox="0 0 512.002 512.002" style="enable-background:new 0 0 512.002 512.002;" xml:space="preserve">
<path style="fill:#2196F3;" d="M337.877,146.077H174.124c-8.027,0-14.535-6.507-14.535-14.535V26.221
	c0.001-8.028,6.508-14.535,14.535-14.535h163.752c8.027,0,14.535,6.507,14.535,14.535v105.322
	C352.412,139.57,345.904,146.077,337.877,146.077z"/>
<path style="fill:#ECF0F1;" d="M218.021,195.159c-1.289,0-2.337-1.048-2.337-2.337v-46.745c0-1.289,1.048-2.337,2.337-2.337h75.96
	c1.289,0,2.337,1.048,2.337,2.337v46.745c0,1.289-1.048,2.337-2.337,2.337H218.021z"/>
<path style="fill:#4CAF50;" d="M477.526,453.569H313.774c-8.027,0-14.535-6.507-14.535-14.535V333.712
	c0-8.027,6.507-14.535,14.535-14.535h163.752c8.027,0,14.535,6.507,14.535,14.535v105.322
	C492.062,447.062,485.554,453.569,477.526,453.569z"/>
<path style="fill:#ECF0F1;" d="M357.671,502.651c-1.289,0-2.337-1.048-2.337-2.337v-46.745c0-1.289,1.048-2.337,2.337-2.337h75.96
	c1.289,0,2.337,1.048,2.337,2.337v46.745c0,1.289-1.048,2.337-2.337,2.337H357.671z"/>
<path style="fill:#FFC107;" d="M198.227,453.569H34.475c-8.027,0-14.535-6.507-14.535-14.535V333.712
	c0-8.027,6.507-14.535,14.535-14.535h163.752c8.027,0,14.535,6.507,14.535,14.535v105.322
	C212.762,447.062,206.254,453.569,198.227,453.569z"/>
<path style="fill:#ECF0F1;" d="M78.372,502.651c-1.289,0-2.337-1.048-2.337-2.337v-46.745c0-1.289,1.048-2.337,2.337-2.337h75.96
	c1.289,0,2.337,1.048,2.337,2.337v46.745c0,1.289-1.048,2.337-2.337,2.337H78.372z"/>
<g>
	<path style="fill:#231F20;" d="M477.526,307.492h-70.191v-46.526c0-6.454-5.232-11.686-11.686-11.686H267.686v-44.772h61.937
		c6.454,0,11.686-5.232,11.686-11.686c0-6.454-5.232-11.686-11.686-11.686h-23.957v-23.372h32.211
		c14.458,0,26.221-11.762,26.221-26.221V26.221C364.098,11.762,352.335,0,337.877,0H174.124c-14.458,0-26.221,11.762-26.221,26.221
		v105.322c0.001,14.458,11.763,26.22,26.221,26.22h32.211v23.372h-23.957c-6.454,0-11.686,5.232-11.686,11.686
		c0,6.454,5.232,11.686,11.686,11.686h61.937v44.773H116.352c-6.454,0-11.686,5.232-11.686,11.686v46.526H34.475
		c-14.458,0-26.221,11.762-26.221,26.221v105.322c0,14.458,11.762,26.221,26.221,26.221h32.211v23.372H42.729
		c-6.454,0-11.686,5.232-11.686,11.686s5.232,11.686,11.686,11.686h147.246c6.454,0,11.686-5.232,11.686-11.686
		s-5.232-11.686-11.686-11.686h-23.957v-23.372h32.211c14.458,0,26.221-11.762,26.221-26.221V333.715
		c0-14.458-11.762-26.221-26.221-26.221h-70.191v-34.84h255.927v34.84h-70.191c-14.458,0-26.221,11.762-26.221,26.221v105.322
		c0,14.458,11.762,26.221,26.221,26.221h32.211v23.372h-23.957c-6.454,0-11.686,5.232-11.686,11.686s5.232,11.686,11.686,11.686
		h147.246c6.454,0,11.686-5.232,11.686-11.686s-5.232-11.686-11.686-11.686h-23.957v-23.372h32.211
		c14.458,0,26.221-11.762,26.221-26.221V333.715C503.748,319.254,491.985,307.492,477.526,307.492z M142.645,488.628H90.058v-23.372
		h52.588V488.628z M198.227,330.865c1.571,0,2.849,1.277,2.849,2.849v62.595h-62.813c-6.454,0-11.686,5.232-11.686,11.686
		c0,6.454,5.232,11.686,11.686,11.686h62.813v19.356c0,1.571-1.277,2.849-2.849,2.849H34.475c-1.571,0-2.849-1.277-2.849-2.849
		V333.715c0-1.571,1.277-2.849,2.849-2.849h163.752V330.865z M174.124,134.391c-1.571,0-2.849-1.277-2.849-2.849V26.221
		c0-1.571,1.277-2.849,2.849-2.849h163.752c1.571,0,2.849,1.277,2.849,2.849v63.505h-54.925c-6.454,0-11.686,5.232-11.686,11.686
		s5.232,11.686,11.686,11.686h54.925v18.444c0,1.571-1.277,2.849-2.849,2.849H174.124V134.391z M229.707,181.136v-23.372h52.588
		v23.372H229.707z M421.945,488.628h-52.588v-23.372h52.588V488.628z M477.526,441.883H313.774c-1.571,0-2.849-1.277-2.849-2.849
		V333.712c0-1.571,1.277-2.849,2.849-2.849h163.752c1.571,0,2.849,1.277,2.849,2.849v62.595h-54.925
		c-6.454,0-11.686,5.232-11.686,11.686s5.232,11.686,11.686,11.686h54.925v19.356C480.375,440.606,479.097,441.883,477.526,441.883z
		"/>
	<path style="fill:#231F20;" d="M239.445,89.725h-6.623c-6.454,0-11.686,5.232-11.686,11.686s5.232,11.686,11.686,11.686h6.623
		c6.454,0,11.686-5.232,11.686-11.686S245.9,89.725,239.445,89.725z"/>
	<path style="fill:#231F20;" d="M379.095,396.307h-6.623c-6.454,0-11.686,5.232-11.686,11.686s5.232,11.686,11.686,11.686h6.623
		c6.454,0,11.686-5.232,11.686-11.686S385.549,396.307,379.095,396.307z"/>
	<path style="fill:#231F20;" d="M85.285,419.679h6.623c6.454,0,11.686-5.232,11.686-11.686s-5.232-11.686-11.686-11.686h-6.623
		c-6.454,0-11.686,5.232-11.686,11.686S78.832,419.679,85.285,419.679z"/>
</g>
<g>
</g>
<g>
</g>
<g>
</g>
<g>
</g>
<g>
</g>
<g>
</g>
<g>
</g>
<g>
</g>
<g>
</g>
<g>
</g>
<g>
</g>
<g>
</g>
<g>
</g>
<g>
</g>
<g>
</g>
</svg>
