<?xml version="1.0" encoding="iso-8859-1"?>
<!-- Generator: Adobe Illustrator 19.0.0, SVG Export Plug-In . SVG Version: 6.00 Build 0)  -->
<svg version="1.1" id="Layer_1" xmlns="http://www.w3.org/2000/svg" xmlns:xlink="http://www.w3.org/1999/xlink" x="0px" y="0px"
	 viewBox="0 0 512 512" style="enable-background:new 0 0 512 512;" xml:space="preserve">
<path style="fill:#5D9BEB;" d="M512,256.006C512,397.402,397.394,512.004,256.004,512C114.606,512.004,0,397.402,0,256.006
	C-0.007,114.61,114.606,0,256.004,0C397.394,0,512,114.614,512,256.006z"/>
<path style="fill:#4988DB;" d="M512,256.005c0-13.279-1.012-26.32-2.961-39.052c-0.221-0.219-0.431-0.445-0.659-0.659
	c-0.515-0.553-109.326-109.362-109.877-109.877c-6.097-6.521-14.705-10.661-24.315-10.661c-18.406,0-33.385,14.977-33.385,33.385
	c0,6.793,2.063,13.103,5.562,18.382l-57.021,57.021c-0.35,0.349-0.53,0.784-0.786,1.182c-10.772-10.193-25.265-16.492-41.232-16.492
	c-16.468,0-31.315,6.75-42.175,17.523c-0.363-0.372-53.143-53.085-53.695-53.6c-6.097-6.521-14.705-10.662-24.315-10.662
	c-18.406,0-33.385,14.978-33.385,33.386c0,9.61,4.141,18.218,10.662,24.315c0.515,0.549,94.342,94.471,94.571,94.701l-37.447,37.447
	c-3.301-1.787-7.022-2.896-11.031-2.896c-12.884,0-23.37,10.484-23.37,23.37c0,6.848,3.015,12.957,7.725,17.235
	c0.508,0.558,139.574,139.625,140.133,140.133c0.308,0.34,0.642,0.649,0.969,0.967C408.018,500.958,512,390.674,512,256.005z"/>
<path style="fill:#F6F6F6;" d="M354.158,322.769c-8.674,0-16.775,2.419-23.745,6.553l-36.309-42.362
	c8.313-10.31,13.316-23.393,13.316-37.637c0-12.627-3.934-24.342-10.613-34.025c0.711-0.323,1.396-0.731,1.981-1.315l57.021-57.021
	c5.278,3.499,11.588,5.562,18.381,5.562c18.407,0,33.385-14.977,33.385-33.385s-14.977-33.385-33.385-33.385
	c-18.407,0-33.385,14.977-33.385,33.385c0,6.793,2.063,13.103,5.562,18.381l-57.021,57.021c-0.349,0.349-0.53,0.784-0.786,1.183
	c-10.772-10.193-25.265-16.493-41.232-16.493c-17.792,0-33.754,7.818-44.767,20.145l-43.339-24.765
	c0.765-2.801,1.306-5.693,1.306-8.733c0-18.407-14.977-33.385-33.385-33.385S93.76,157.471,93.76,175.877
	s14.977,33.385,33.385,33.385c10.573,0,19.902-5.037,26.023-12.732l41.582,23.761c-4.775,8.613-7.514,18.505-7.514,29.031
	c0,15.865,6.225,30.272,16.304,41.023l-41.996,41.996c-3.301-1.788-7.021-2.897-11.031-2.897c-12.884,0-23.369,10.484-23.369,23.369
	s10.484,23.369,23.369,23.369c12.884,0,23.369-10.484,23.369-23.369c0-4.01-1.109-7.73-2.896-11.03l42.698-42.698
	c9.606,6.515,21.187,10.329,33.645,10.329c14.077,0,27.011-4.9,37.264-13.038l35.419,41.322
	c-7.785,8.352-12.591,19.517-12.591,31.807c0,25.772,20.97,46.738,46.738,46.738s46.738-20.966,46.738-46.738
	C400.896,343.732,379.926,322.769,354.158,322.769z M374.189,109.109c11.045,0,20.031,8.986,20.031,20.031
	s-8.986,20.031-20.031,20.031c-11.045,0-20.031-8.986-20.031-20.031C354.158,118.095,363.143,109.109,374.189,109.109z
	 M127.145,195.908c-11.045,0-20.031-8.986-20.031-20.031c0-11.045,8.986-20.031,20.031-20.031s20.031,8.986,20.031,20.031
	C147.175,186.923,138.19,195.908,127.145,195.908z M150.514,362.83c-5.523,0-10.015-4.493-10.015-10.015
	c0-5.522,4.493-10.015,10.015-10.015c5.523,0,10.015,4.493,10.015,10.015C160.529,358.337,156.036,362.83,150.514,362.83z
	 M247.328,296.061c-25.769,0-46.738-20.966-46.738-46.738s20.97-46.738,46.738-46.738s46.738,20.966,46.738,46.738
	S273.097,296.061,247.328,296.061z M354.158,402.891c-18.407,0-33.385-14.977-33.385-33.385c0-18.407,14.977-33.385,33.385-33.385
	s33.385,14.977,33.385,33.385C387.542,387.914,372.565,402.891,354.158,402.891z"/>
<g>
</g>
<g>
</g>
<g>
</g>
<g>
</g>
<g>
</g>
<g>
</g>
<g>
</g>
<g>
</g>
<g>
</g>
<g>
</g>
<g>
</g>
<g>
</g>
<g>
</g>
<g>
</g>
<g>
</g>
</svg>
