<svg id="visual" 
width="60%" 
height="100%" 
xmlns="http://www.w3.org/2000/svg" 
xmlns:xlink="http://www.w3.org/1999/xlink" 
version="1.1">
<rect x="0" y="0" width="250%" height="100%" fill="#10032d"></rect>
<path d="M0 140L22.2 141.3C44.3 142.7 88.7 145.3 133.2 149C177.7 152.7 222.3 157.3 266.8 157.5C311.3 157.7 355.7 153.3 400 150.2C444.3 147 488.7 145 533.2 143C577.7 141 622.3 139 666.8 139.3C711.3 139.7 755.7 142.3 800 145.5C844.3 148.7 888.7 152.3 933.2 150.7C977.7 149 1022.3 142 1066.8 141.8C1111.3 141.7 1155.7 148.3 1177.8 151.7L1200 155L1200 261L1177.8 261C1155.7 261 1111.3 261 1066.8 261C1022.3 261 977.7 261 933.2 261C888.7 261 844.3 261 800 261C755.7 261 711.3 261 666.8 261C622.3 261 577.7 261 533.2 261C488.7 261 444.3 261 400 261C355.7 261 311.3 261 266.8 261C222.3 261 177.7 261 133.2 261C88.7 261 44.3 261 22.2 261L0 261Z" fill="#ffc43e"></path><path d="M0 178L22.2 176.2C44.3 174.3 88.7 170.7 133.2 169.5C177.7 168.3 222.3 169.7 266.8 167.7C311.3 165.7 355.7 160.3 400 161.7C444.3 163 488.7 171 533.2 176C577.7 181 622.3 183 666.8 180.5C711.3 178 755.7 171 800 168.3C844.3 165.7 888.7 167.3 933.2 171.2C977.7 175 1022.3 181 1066.8 183.5C1111.3 186 1155.7 185 1177.8 184.5L1200 184L1200 261L1177.8 261C1155.7 261 1111.3 261 1066.8 261C1022.3 261 977.7 261 933.2 261C888.7 261 844.3 261 800 261C755.7 261 711.3 261 666.8 261C622.3 261 577.7 261 533.2 261C488.7 261 444.3 261 400 261C355.7 261 311.3 261 266.8 261C222.3 261 177.7 261 133.2 261C88.7 261 44.3 261 22.2 261L0 261Z" fill="#ff8b4b"></path><path d="M0 182L22.2 183.7C44.3 185.3 88.7 188.7 133.2 190.2C177.7 191.7 222.3 191.3 266.8 189C311.3 186.7 355.7 182.3 400 184.3C444.3 186.3 488.7 194.7 533.2 194.7C577.7 194.7 622.3 186.3 666.8 182.8C711.3 179.3 755.7 180.7 800 183C844.3 185.3 888.7 188.7 933.2 190.2C977.7 191.7 1022.3 191.3 1066.8 189.8C1111.3 188.3 1155.7 185.7 1177.8 184.3L1200 183L1200 261L1177.8 261C1155.7 261 1111.3 261 1066.8 261C1022.3 261 977.7 261 933.2 261C888.7 261 844.3 261 800 261C755.7 261 711.3 261 666.8 261C622.3 261 577.7 261 533.2 261C488.7 261 444.3 261 400 261C355.7 261 311.3 261 266.8 261C222.3 261 177.7 261 133.2 261C88.7 261 44.3 261 22.2 261L0 261Z" fill="#ff556c"></path><path d="M0 211L22.2 212C44.3 213 88.7 215 133.2 216C177.7 217 222.3 217 266.8 217C311.3 217 355.7 217 400 216.5C444.3 216 488.7 215 533.2 213.7C577.7 212.3 622.3 210.7 666.8 208.8C711.3 207 755.7 205 800 207.2C844.3 209.3 888.7 215.7 933.2 217.5C977.7 219.3 1022.3 216.7 1066.8 216.5C1111.3 216.3 1155.7 218.7 1177.8 219.8L1200 221L1200 261L1177.8 261C1155.7 261 1111.3 261 1066.8 261C1022.3 261 977.7 261 933.2 261C888.7 261 844.3 261 800 261C755.7 261 711.3 261 666.8 261C622.3 261 577.7 261 533.2 261C488.7 261 444.3 261 400 261C355.7 261 311.3 261 266.8 261C222.3 261 177.7 261 133.2 261C88.7 261 44.3 261 22.2 261L0 261Z" fill="#ff0ea5"></path><path d="M0 225L22.2 224.8C44.3 224.7 88.7 224.3 133.2 226.7C177.7 229 222.3 234 266.8 234.3C311.3 234.7 355.7 230.3 400 228.5C444.3 226.7 488.7 227.3 533.2 229.7C577.7 232 622.3 236 666.8 238.5C711.3 241 755.7 242 800 242C844.3 242 888.7 241 933.2 239.7C977.7 238.3 1022.3 236.7 1066.8 234.7C1111.3 232.7 1155.7 230.3 1177.8 229.2L1200 228L1200 261L1177.8 261C1155.7 261 1111.3 261 1066.8 261C1022.3 261 977.7 261 933.2 261C888.7 261 844.3 261 800 261C755.7 261 711.3 261 666.8 261C622.3 261 577.7 261 533.2 261C488.7 261 444.3 261 400 261C355.7 261 311.3 261 266.8 261C222.3 261 177.7 261 133.2 261C88.7 261 44.3 261 22.2 261L0 261Z" fill="#fd13fd"></path></svg>